<svg width="100%" height="100%"
  xmlns="http://www.w3.org/2000/svg">
  <path d="M 0 9 V 15" stroke="#00000033"/>
  <text x="-2" y="7" font-size="8" font-family="sans-serif" fill="#00000033">0</text>
  <path d="M 10 12 V 15" stroke="#00000033"/>
  <path d="M 20 12 V 15" stroke="#00000033"/>
  <path d="M 30 12 V 15" stroke="#00000033"/>
  <path d="M 40 12 V 15" stroke="#00000033"/>
  <path d="M 50 7 V 15" stroke="#00000033"/>
  <path d="M 60 12 V 15" stroke="#00000033"/>
  <path d="M 70 12 V 15" stroke="#00000033"/>
  <path d="M 80 12 V 15" stroke="#00000033"/>
  <path d="M 90 12 V 15" stroke="#00000033"/>
  <path d="M 100 9 V 15" stroke="#00000033"/>
  <text x="93" y="7" font-size="8" font-family="sans-serif" fill="#00000033">100</text>
  <path d="M 110 12 V 15" stroke="#00000033"/>
  <path d="M 120 12 V 15" stroke="#00000033"/>
  <path d="M 130 12 V 15" stroke="#00000033"/>
  <path d="M 140 12 V 15" stroke="#00000033"/>
  <path d="M 150 7 V 15" stroke="#00000033"/>
  <path d="M 160 12 V 15" stroke="#00000033"/>
  <path d="M 170 12 V 15" stroke="#00000033"/>
  <path d="M 180 12 V 15" stroke="#00000033"/>
  <path d="M 190 12 V 15" stroke="#00000033"/>
  <path d="M 200 9 V 15" stroke="#00000033"/>
  <text x="193" y="7" font-size="8" font-family="sans-serif" fill="#00000033">200</text>
  <path d="M 210 12 V 15" stroke="#00000033"/>
  <path d="M 220 12 V 15" stroke="#00000033"/>
  <path d="M 230 12 V 15" stroke="#00000033"/>
  <path d="M 240 12 V 15" stroke="#00000033"/>
  <path d="M 250 7 V 15" stroke="#00000033"/>
</svg>
